<svg id="Layer_1" data-name="Layer 1" xmlns="http://www.w3.org/2000/svg" viewBox="0 0 81.11 81.94"><defs><style>.cls-1{fill:#585756;}.cls-2{fill:#fff;}</style></defs><title>nav_icons</title><circle class="cls-1" cx="40.56" cy="40.86" r="39.54"/><path class="cls-2" d="M52.47,48V37A11.62,11.62,0,0,0,42.88,25.6V24a1.37,1.37,0,0,0-1.37-1.37H40.15A1.36,1.36,0,0,0,38.78,24v1.56A11.62,11.62,0,0,0,29.22,37V48L25.11,51.9v2.22H56.56V51.9Z"/><path class="cls-2" d="M40.83,58.23a2.73,2.73,0,0,0,2.74-2.73H38.1a2.73,2.73,0,0,0,2.73,2.73"/></svg>