<svg id="Layer_1" data-name="Layer 1" xmlns="http://www.w3.org/2000/svg" viewBox="0 0 81.11 81.94"><defs><style>.cls-1{fill:#585756;}</style></defs><title>nav_icons</title><path class="cls-1" d="M60.25,79.73a1.8,1.8,0,0,1-1.78-1.78V60.1a1.79,1.79,0,0,1,1.78-1.78H78.1a1.79,1.79,0,0,1,1.79,1.78V77.94a1.79,1.79,0,0,1-1.79,1.78Zm-28.57,0a1.79,1.79,0,0,1-1.79-1.78V60.1a1.79,1.79,0,0,1,1.79-1.78H49.53a1.79,1.79,0,0,1,1.79,1.78V77.94a1.79,1.79,0,0,1-1.79,1.78Zm-28.56,0a1.79,1.79,0,0,1-1.79-1.78V60.1a1.79,1.79,0,0,1,1.79-1.78H21a1.79,1.79,0,0,1,1.79,1.78V77.94A1.79,1.79,0,0,1,21,79.73ZM60.25,51.16a1.79,1.79,0,0,1-1.78-1.78V31.53a1.79,1.79,0,0,1,1.78-1.79H78.1a1.79,1.79,0,0,1,1.79,1.79V49.38a1.79,1.79,0,0,1-1.79,1.78Zm-28.57,0a1.79,1.79,0,0,1-1.79-1.78V31.53a1.79,1.79,0,0,1,1.79-1.79H49.53a1.79,1.79,0,0,1,1.79,1.79V49.38a1.79,1.79,0,0,1-1.79,1.78Zm-28.56,0a1.79,1.79,0,0,1-1.79-1.78V31.53a1.79,1.79,0,0,1,1.79-1.79H21a1.79,1.79,0,0,1,1.79,1.79V49.38A1.78,1.78,0,0,1,21,51.16ZM60.25,22.6a1.79,1.79,0,0,1-1.78-1.78V3a1.8,1.8,0,0,1,1.78-1.79H78.1A1.8,1.8,0,0,1,79.89,3V20.82A1.79,1.79,0,0,1,78.1,22.6Zm-28.57,0a1.79,1.79,0,0,1-1.79-1.78V3a1.79,1.79,0,0,1,1.79-1.79H49.53A1.8,1.8,0,0,1,51.32,3V20.82a1.79,1.79,0,0,1-1.79,1.78Zm-28.56,0a1.79,1.79,0,0,1-1.79-1.78V3A1.79,1.79,0,0,1,3.12,1.18H21A1.79,1.79,0,0,1,22.75,3V20.82A1.79,1.79,0,0,1,21,22.6Z"/></svg>